<svg xmlns="http://www.w3.org/2000/svg" xmlns:xlink="http://www.w3.org/1999/xlink" width="15.752" height="19.351" viewBox="0 0 15.752 19.351">
  <defs>
    <clipPath id="clip-path">
      <rect id="Rectangle_3314" data-name="Rectangle 3314" width="15.752" height="19.351" fill="none"/>
    </clipPath>
  </defs>
  <g id="ic_apple" clip-path="url(#clip-path)">
    <path id="Path_682" data-name="Path 682" d="M0,500.293v-.113c.014-.006.009-.019.009-.029a7.3,7.3,0,0,1,.18-1.326,5.675,5.675,0,0,1,.986-2.157,4.738,4.738,0,0,1,1.653-1.393,4.484,4.484,0,0,1,1.586-.466,3.6,3.6,0,0,1,1.187.067,7.284,7.284,0,0,1,1.04.345,8.984,8.984,0,0,0,.932.342,1.455,1.455,0,0,0,.746.023,4.711,4.711,0,0,0,.542-.175c.4-.151.789-.319,1.195-.446a4.621,4.621,0,0,1,1.206-.226,5.026,5.026,0,0,1,1.2.1,4.357,4.357,0,0,1,2.517,1.468,4.082,4.082,0,0,1,.268.35l-.073.049a4.669,4.669,0,0,0-1.212,1.145,4.1,4.1,0,0,0-.8,2.325A4.155,4.155,0,0,0,15.249,504a3.62,3.62,0,0,0,.5.259c-.005.02-.01.039-.015.056a10.232,10.232,0,0,1-.727,1.719,12.718,12.718,0,0,1-1.113,1.7,6.127,6.127,0,0,1-.921,1.016,2.7,2.7,0,0,1-.9.527,2.457,2.457,0,0,1-1.318.032,4.06,4.06,0,0,1-.809-.292,3.984,3.984,0,0,0-1.546-.4,3.862,3.862,0,0,0-1.23.154,9.235,9.235,0,0,0-.891.345,3.372,3.372,0,0,1-1.1.284,2.008,2.008,0,0,1-1.1-.249,3.457,3.457,0,0,1-.861-.692A13.044,13.044,0,0,1,1.8,506.615a12.021,12.021,0,0,1-1.784-5.537.751.751,0,0,0-.015-.19v-.095a.394.394,0,0,0,0-.189v-.123a.4.4,0,0,0,0-.189" transform="translate(0 -490.059)"/>
    <path id="Path_683" data-name="Path 683" d="M829.015,0a.783.783,0,0,1,.037.241,3.75,3.75,0,0,1-.236,1.476,4.353,4.353,0,0,1-1.162,1.762,3.837,3.837,0,0,1-1.7.919,2.02,2.02,0,0,1-.735.053l-.07-.012a2.014,2.014,0,0,1-.028-.584A4.347,4.347,0,0,1,827.081.683a4.44,4.44,0,0,1,1.364-.6,2.954,2.954,0,0,1,.442-.073c.009,0,.019,0,.024-.009Z" transform="translate(-817.308)"/>
    <path id="Path_684" data-name="Path 684" d="M0,1082.472a.4.4,0,0,1,0,.189Z" transform="translate(0 -1072.238)" fill="#343434"/>
    <path id="Path_685" data-name="Path 685" d="M0,1115.456a.4.4,0,0,1,0,.189Z" transform="translate(0 -1104.91)" fill="#343434"/>
  </g>
</svg>
