<svg xmlns="http://www.w3.org/2000/svg" width="11.844" height="11.844" viewBox="0 0 11.844 11.844">
  <path id="ic_calander" d="M10.434,11.844H1.41A1.412,1.412,0,0,1,0,10.434V2.82A1.412,1.412,0,0,1,1.41,1.41h.564V.846a.846.846,0,0,1,1.692,0V1.41H8.179V.846a.846.846,0,1,1,1.692,0V1.41h.564a1.412,1.412,0,0,1,1.41,1.41v7.614A1.412,1.412,0,0,1,10.434,11.844ZM1.692,4.23a.282.282,0,0,0-.282.282v5.64a.282.282,0,0,0,.282.282h8.46a.282.282,0,0,0,.282-.282V4.512a.282.282,0,0,0-.282-.282Z" fill="#b787fc"/>
</svg>
