<svg xmlns="http://www.w3.org/2000/svg" width="18.254" height="18.254" viewBox="0 0 18.254 18.254">
  <path id="ic_d4" d="M6.563,6.563V2.913A.913.913,0,0,1,7.476,2H19.341a.913.913,0,0,1,.913.913V14.777a.913.913,0,0,1-.913.913H15.69v3.644a.918.918,0,0,1-.919.919H2.919A.918.918,0,0,1,2,19.334L2,7.482a.918.918,0,0,1,.919-.919Zm1.825,0h6.382a.918.918,0,0,1,.919.919v6.382h2.738V3.825H8.389Zm5.476,1.825H3.828l0,10.039H13.865ZM7.935,16.6,4.708,13.376,6,12.085l1.937,1.937,3.872-3.872L13.1,11.44Z" transform="translate(-2 -2)" fill="#8b9094"/>
</svg>
