<svg xmlns="http://www.w3.org/2000/svg" width="16.428" height="18.254" viewBox="0 0 16.428 18.254">
  <path id="ic_d10" d="M3.913,2h14.6a.913.913,0,0,1,.913.913V19.341a.913.913,0,0,1-.913.913H3.913A.913.913,0,0,1,3,19.341V2.913A.913.913,0,0,1,3.913,2Zm.913,1.825v14.6H17.6V3.825ZM6.651,5.651h9.127V9.3H6.651Zm0,5.476H8.476v1.825H6.651Zm0,3.651H8.476V16.6H6.651ZM10.3,11.127h1.825v1.825H10.3Zm0,3.651h1.825V16.6H10.3Zm3.651-3.651h1.825V16.6H13.952Z" transform="translate(-3 -2)" fill="#8b9094"/>
</svg>
