<svg xmlns="http://www.w3.org/2000/svg" width="16.428" height="16.428" viewBox="0 0 16.428 16.428">
  <path id="ic_d6" d="M8.81,10.011a9.634,9.634,0,0,0,3.607,3.607l.807-1.13a.913.913,0,0,1,1.181-.27,10.425,10.425,0,0,0,4.183,1.245.913.913,0,0,1,.841.91v4.072a.913.913,0,0,1-.82.908A14.155,14.155,0,0,1,3.075,3.82.913.913,0,0,1,3.983,3H8.055a.913.913,0,0,1,.91.841A10.425,10.425,0,0,0,10.21,8.023.913.913,0,0,1,9.94,9.2l-1.13.807Zm-2.3-.6L8.242,8.173a12.239,12.239,0,0,1-1-3.348H4.834c-.005.152-.008.3-.008.456A12.32,12.32,0,0,0,17.146,17.6c.152,0,.3,0,.456-.009V15.187a12.239,12.239,0,0,1-3.348-1L13.017,15.92a11.355,11.355,0,0,1-1.449-.685l-.053-.03a11.46,11.46,0,0,1-4.291-4.291l-.03-.053a11.355,11.355,0,0,1-.685-1.449Z" transform="translate(-3 -3)" fill="#8b9094"/>
</svg>
