<svg xmlns="http://www.w3.org/2000/svg" width="15.694" height="15.694" viewBox="0 0 15.694 15.694">
  <path id="ic_d12" d="M3,4.739A1.739,1.739,0,0,1,4.739,3H16.955a1.739,1.739,0,0,1,1.739,1.739V16.955a1.739,1.739,0,0,1-1.739,1.739H4.739A1.739,1.739,0,0,1,3,16.955Zm1.744,0V16.951H16.951V4.744ZM7.335,16.236a8.7,8.7,0,0,1-1.527-.853,6.1,6.1,0,0,1,10.166-.135,8.715,8.715,0,0,1-1.5.894,4.361,4.361,0,0,0-7.136.094Zm3.512-4.516A3.052,3.052,0,1,1,13.9,8.667a3.052,3.052,0,0,1-3.052,3.052Zm0-1.744A1.308,1.308,0,1,0,9.539,8.667,1.308,1.308,0,0,0,10.847,9.975Z" transform="translate(-3 -3)" fill="#8b9094"/>
</svg>
