<svg xmlns="http://www.w3.org/2000/svg" width="18.254" height="18.254" viewBox="0 0 18.254 18.254">
  <path id="ic_d7" d="M8.389,1V2.825h5.476V1H15.69V2.825h3.651a.913.913,0,0,1,.913.913v14.6a.913.913,0,0,1-.913.913H2.913A.913.913,0,0,1,2,18.341V3.738a.913.913,0,0,1,.913-.913H6.563V1ZM18.428,9.214H3.825v8.214h14.6ZM13.9,10.251l1.291,1.291L10.67,16.059,7.443,12.832l1.292-1.291,1.936,1.937L13.9,10.251Zm-7.334-5.6H3.825V7.389h14.6V4.651H15.69v.913H13.865V4.651H8.389v.913H6.563Z" transform="translate(-2 -1)" fill="#8b9094"/>
</svg>
