<svg xmlns="http://www.w3.org/2000/svg" width="14.311" height="19.057" viewBox="0 0 14.311 19.057">
  <path id="ic_d13" d="M18.311,20.057H16.522V18.242a2.7,2.7,0,0,0-2.683-2.722H8.472a2.7,2.7,0,0,0-2.683,2.722v1.815H4V18.242A4.505,4.505,0,0,1,8.472,13.7h5.367a4.505,4.505,0,0,1,4.472,4.537ZM11.155,11.89A5.406,5.406,0,0,1,5.789,6.445a5.367,5.367,0,1,1,10.733,0A5.406,5.406,0,0,1,11.155,11.89Zm0-1.815a3.63,3.63,0,1,0-3.578-3.63A3.6,3.6,0,0,0,11.155,10.075Z" transform="translate(-4 -1)" fill="#8b9094"/>
</svg>
