<svg xmlns="http://www.w3.org/2000/svg" width="18.254" height="18.254" viewBox="0 0 18.254 18.254">
  <path id="ic_d5" d="M15.69,2.825h3.651a.913.913,0,0,1,.913.913v14.6a.913.913,0,0,1-.913.913H2.913A.913.913,0,0,1,2,18.341V3.738a.913.913,0,0,1,.913-.913H6.563V1H8.389V2.825h5.476V1H15.69Zm2.738,7.3H3.825v7.3h14.6ZM13.865,4.651H8.389V6.476H6.563V4.651H3.825V8.3h14.6V4.651H15.69V6.476H13.865Zm-8.214,7.3H7.476v1.825H5.651Zm4.563,0h1.825v1.825H10.214Zm4.563,0H16.6v1.825H14.777Z" transform="translate(-2 -1)" fill="#4e8afa"/>
</svg>
