<svg xmlns="http://www.w3.org/2000/svg" xmlns:xlink="http://www.w3.org/1999/xlink" width="18.956" height="19.351" viewBox="0 0 18.956 19.351">
  <defs>
    <clipPath id="clip-path">
      <rect id="Rectangle_3313" data-name="Rectangle 3313" width="18.956" height="19.351" fill="none"/>
    </clipPath>
  </defs>
  <g id="ic_google" clip-path="url(#clip-path)">
    <path id="Path_678" data-name="Path 678" d="M16.767,5.357A9.269,9.269,0,0,1,20.248,1.5a9.6,9.6,0,0,1,11.125.591c.159.127.308.267.475.413L29.026,5.217a5.312,5.312,0,0,0-1.864-1.093,5.734,5.734,0,0,0-7.075,3.364c-.041.1-.1.2-.144.3-.11-.075-.225-.143-.33-.225q-1.425-1.1-2.847-2.208" transform="translate(-15.732 0)" fill="#e44436"/>
    <path id="Path_679" data-name="Path 679" d="M31.808,192.99a8.192,8.192,0,0,1-4,2.066,9.678,9.678,0,0,1-9-2.366,8.568,8.568,0,0,1-2-2.708c.074-.054.15-.106.222-.162l2.941-2.271c.1.2.19.4.288.605a5.833,5.833,0,0,0,8.333,2.509,1.579,1.579,0,0,1,.166-.076c.126.1.25.209.378.31q1.339,1.047,2.679,2.092" transform="translate(-15.765 -175.971)" fill="#35a353"/>
    <path id="Path_680" data-name="Path 680" d="M163.3,138.254q-1.34-1.046-2.679-2.092c-.128-.1-.252-.206-.378-.31a4.688,4.688,0,0,0,1.577-1.894c.132-.317.225-.651.354-1.031h-5.229v-3.715h9.128c.048.587.133,1.185.139,1.785a10.065,10.065,0,0,1-1.325,5.314,7.017,7.017,0,0,1-1.587,1.943" transform="translate(-147.257 -121.235)" fill="#4280ee"/>
    <path id="Path_681" data-name="Path 681" d="M4.2,92.985,1.26,95.255c-.073.056-.148.108-.222.162A8.828,8.828,0,0,1,.05,92.075a9.588,9.588,0,0,1,.907-5.18c.022-.046.052-.088.078-.132q1.423,1.1,2.847,2.208c.105.081.22.15.33.225-.078.381-.17.759-.23,1.142a5.694,5.694,0,0,0,.2,2.469.96.96,0,0,1,.017.177" transform="translate(0 -81.407)" fill="#f5b705"/>
  </g>
</svg>
