<svg xmlns="http://www.w3.org/2000/svg" width="12.7" height="10.16" viewBox="0 0 12.7 10.16">
  <path id="ic_leaveType" d="M9.842,4.445A2.857,2.857,0,1,0,12.7,7.3,2.856,2.856,0,0,0,9.842,4.445Zm1.27,2.982a.193.193,0,0,1-.193.193h-1.2a.193.193,0,0,1-.193-.193V5.908a.193.193,0,0,1,.193-.193h.249a.193.193,0,0,1,.193.193V6.985h.76a.193.193,0,0,1,.193.193ZM9.842,3.81c.107,0,.213.007.317.016V2.857A.977.977,0,0,0,9.207,1.9H7.62V.952A.977.977,0,0,0,6.667,0H3.492A.977.977,0,0,0,2.54.952V1.9H.952A.977.977,0,0,0,0,2.857V4.445H7.841A3.471,3.471,0,0,1,9.842,3.81ZM6.35,1.9H3.81V1.27H6.35ZM6.485,6.35H4.127a.317.317,0,0,1-.317-.317V5.08H0V7.937a.977.977,0,0,0,.952.952H6.735a3.446,3.446,0,0,1-.25-2.54Z" fill="#f683c6"/>
</svg>
