<svg id="ic_notification" xmlns="http://www.w3.org/2000/svg" width="16.582" height="19" viewBox="0 0 16.582 19">
  <g id="Group_2725" data-name="Group 2725">
    <path id="Path_12103" data-name="Path 12103" d="M32.736,24.769a6.219,6.219,0,0,0-4.664,6.022v4.145a.692.692,0,0,1-.69.691,1.382,1.382,0,1,0,0,2.764H41.2a1.382,1.382,0,1,0,0-2.764.689.689,0,0,1-.69-.691V30.791a6.22,6.22,0,0,0-4.664-6.022v-.714a1.555,1.555,0,1,0-3.109,0Zm-.864,14.313h4.836a2.418,2.418,0,0,1-4.836,0Z" transform="translate(-26 -22.5)" fill="#fff" fill-rule="evenodd"/>
  </g>
</svg>
