<svg xmlns="http://www.w3.org/2000/svg" xmlns:xlink="http://www.w3.org/1999/xlink" width="375" height="732" viewBox="0 0 375 732">
  <defs>
    <filter id="Rectangle_5" x="68" y="413" width="239" height="71" filterUnits="userSpaceOnUse">
      <feOffset dy="3" input="SourceAlpha"/>
      <feGaussianBlur stdDeviation="3" result="blur"/>
      <feFlood flood-color="#4971d1" flood-opacity="0.271"/>
      <feComposite operator="in" in2="blur"/>
      <feComposite in="SourceGraphic"/>
    </filter>
    <clipPath id="clip-path">
      <rect id="Rectangle_3313" data-name="Rectangle 3313" width="18.956" height="19.351" fill="none"/>
    </clipPath>
    <clipPath id="clip-path-2">
      <rect id="Rectangle_3314" data-name="Rectangle 3314" width="15.752" height="19.351" fill="none"/>
    </clipPath>
    <clipPath id="clip-path-3">
      <rect id="Rectangle_3318" data-name="Rectangle 3318" width="87.168" height="87.168" fill="none"/>
    </clipPath>
  </defs>
  <g id="logo_home" transform="translate(0 -90.477)">
    <path id="Rectangle_3310" data-name="Rectangle 3310" d="M25,0H350a25,25,0,0,1,25,25V732a0,0,0,0,1,0,0H0a0,0,0,0,1,0,0V25A25,25,0,0,1,25,0Z" transform="translate(0 90.477)" fill="#fff"/>
    <line id="Line_4" data-name="Line 4" x2="24.038" transform="translate(175.481 107.95)" fill="none" stroke="#4971d1" stroke-linecap="round" stroke-width="4"/>
    <g id="Group_3759" data-name="Group 3759" transform="translate(17.523 125.923)">
      <text id="Welcome_Back_" data-name="Welcome Back!" transform="translate(0.477 24.554)" fill="#1c2340" font-size="24" font-family="SegoeUI, Segoe UI"><tspan x="0" y="0">Welcome Back!</tspan></text>
      <text id="Let_s_login_for_explore_continues" data-name="Let&apos;s login for explore continues" transform="translate(1.477 58.554)" fill="#8a8d9f" font-size="15" font-family="SegoeUI, Segoe UI"><tspan x="0" y="0">Let&apos;s login for explore continues</tspan></text>
    </g>
    <g id="Group_11" data-name="Group 11" transform="translate(77.103 509.685)">
      <g transform="matrix(1, 0, 0, 1, -77.1, -419.21)" filter="url(#Rectangle_5)">
        <rect id="Rectangle_5-2" data-name="Rectangle 5" width="221" height="53" rx="26.5" transform="translate(77 419)" fill="#4971d1"/>
      </g>
      <text id="LOGIN" transform="translate(108.897 31.792)" fill="#fff" font-size="17" font-family="SegoeUI, Segoe UI"><tspan x="-24.57" y="0">LOGIN</tspan></text>
    </g>
    <text id="New_user_Signup" data-name="New user? Signup" transform="translate(186 705.477)" fill="#8a8d9f" font-size="11" font-family="SegoeUI, Segoe UI"><tspan x="-44.295" y="0">New User?</tspan><tspan y="0" fill="#2b2d42"> </tspan><tspan y="0" fill="#4971d1">Signup</tspan></text>
    <g id="Group_3768" data-name="Group 3768" transform="translate(71.68 588.54)">
      <text id="Name" transform="translate(50.32 12.937)" fill="#8b9094" font-size="12" font-family="SegoeUI, Segoe UI"><tspan x="0" y="0">You can connect with</tspan></text>
      <line id="Line_5" data-name="Line 5" x2="41.346" transform="translate(191.171 9.2)" fill="none" stroke="#8b9094" stroke-width="1" opacity="0.5"/>
      <line id="Line_6" data-name="Line 6" x2="41.346" transform="translate(0 9.2)" fill="none" stroke="#8b9094" stroke-width="1" opacity="0.5"/>
    </g>
    <g id="Group_3749" data-name="Group 3749" transform="translate(113.026 623.586)">
      <g id="Group_3746" data-name="Group 3746" transform="translate(0 0)">
        <circle id="Ellipse_61" data-name="Ellipse 61" cx="22" cy="22" r="22" transform="translate(-0.026 -0.11)" fill="#ecedf1"/>
        <g id="Facebook_f_logo__2021_" data-name="Facebook_f_logo_(2021)" transform="translate(16.902 12.161)">
          <path id="Path_677" data-name="Path 677" d="M21.415,18.5l.541-3.365H18.771V12.788c0-.962.361-1.683,1.8-1.683h1.563V8.04a19.654,19.654,0,0,0-2.644-.24A4.355,4.355,0,0,0,14.8,12.488v2.644h-3V18.5h3v8.474a11,11,0,0,0,3.966,0V18.5Z" transform="translate(-11.8 -7.8)" fill="#365697"/>
        </g>
      </g>
      <g id="Group_3747" data-name="Group 3747" transform="translate(53.446 0)">
        <ellipse id="Ellipse_61-2" data-name="Ellipse 61" cx="21.5" cy="22" rx="21.5" ry="22" transform="translate(-0.472 -0.11)" fill="#ecedf1"/>
        <g id="Group_3741" data-name="Group 3741" transform="translate(11.55 12.161)">
          <g id="Group_3740" data-name="Group 3740" clip-path="url(#clip-path)">
            <path id="Path_678" data-name="Path 678" d="M16.767,5.357A9.269,9.269,0,0,1,20.248,1.5a9.6,9.6,0,0,1,11.125.591c.159.127.308.267.475.413L29.026,5.217a5.312,5.312,0,0,0-1.864-1.093,5.734,5.734,0,0,0-7.075,3.364c-.041.1-.1.2-.144.3-.11-.075-.225-.143-.33-.225q-1.425-1.1-2.847-2.208" transform="translate(-15.732 0)" fill="#e44436"/>
            <path id="Path_679" data-name="Path 679" d="M31.808,192.99a8.192,8.192,0,0,1-4,2.066,9.678,9.678,0,0,1-9-2.366,8.568,8.568,0,0,1-2-2.708c.074-.054.15-.106.222-.162l2.941-2.271c.1.2.19.4.288.605a5.833,5.833,0,0,0,8.333,2.509,1.579,1.579,0,0,1,.166-.076c.126.1.25.209.378.31q1.339,1.047,2.679,2.092" transform="translate(-15.765 -175.971)" fill="#35a353"/>
            <path id="Path_680" data-name="Path 680" d="M163.3,138.254q-1.34-1.046-2.679-2.092c-.128-.1-.252-.206-.378-.31a4.688,4.688,0,0,0,1.577-1.894c.132-.317.225-.651.354-1.031h-5.229v-3.715h9.128c.048.587.133,1.185.139,1.785a10.065,10.065,0,0,1-1.325,5.314,7.017,7.017,0,0,1-1.587,1.943" transform="translate(-147.257 -121.235)" fill="#4280ee"/>
            <path id="Path_681" data-name="Path 681" d="M4.2,92.985,1.26,95.255c-.073.056-.148.108-.222.162A8.828,8.828,0,0,1,.05,92.075a9.588,9.588,0,0,1,.907-5.18c.022-.046.052-.088.078-.132q1.423,1.1,2.847,2.208c.105.081.22.15.33.225-.078.381-.17.759-.23,1.142a5.694,5.694,0,0,0,.2,2.469.96.96,0,0,1,.017.177" transform="translate(0 -81.407)" fill="#f5b705"/>
          </g>
        </g>
      </g>
      <g id="Group_3748" data-name="Group 3748" transform="translate(106.016 0)">
        <circle id="Ellipse_61-3" data-name="Ellipse 61" cx="22" cy="22" r="22" transform="translate(-0.042 -0.11)" fill="#ecedf1"/>
        <g id="Group_3743" data-name="Group 3743" transform="translate(13.947 12.161)">
          <g id="Group_3742" data-name="Group 3742" clip-path="url(#clip-path-2)">
            <path id="Path_682" data-name="Path 682" d="M0,500.293v-.113c.014-.006.009-.019.009-.029a7.3,7.3,0,0,1,.18-1.326,5.675,5.675,0,0,1,.986-2.157,4.738,4.738,0,0,1,1.653-1.393,4.484,4.484,0,0,1,1.586-.466,3.6,3.6,0,0,1,1.187.067,7.284,7.284,0,0,1,1.04.345,8.984,8.984,0,0,0,.932.342,1.455,1.455,0,0,0,.746.023,4.711,4.711,0,0,0,.542-.175c.4-.151.789-.319,1.195-.446a4.621,4.621,0,0,1,1.206-.226,5.026,5.026,0,0,1,1.2.1,4.357,4.357,0,0,1,2.517,1.468,4.082,4.082,0,0,1,.268.35l-.073.049a4.669,4.669,0,0,0-1.212,1.145,4.1,4.1,0,0,0-.8,2.325A4.155,4.155,0,0,0,15.249,504a3.62,3.62,0,0,0,.5.259c-.005.02-.01.039-.015.056a10.232,10.232,0,0,1-.727,1.719,12.718,12.718,0,0,1-1.113,1.7,6.127,6.127,0,0,1-.921,1.016,2.7,2.7,0,0,1-.9.527,2.457,2.457,0,0,1-1.318.032,4.06,4.06,0,0,1-.809-.292,3.984,3.984,0,0,0-1.546-.4,3.862,3.862,0,0,0-1.23.154,9.235,9.235,0,0,0-.891.345,3.372,3.372,0,0,1-1.1.284,2.008,2.008,0,0,1-1.1-.249,3.457,3.457,0,0,1-.861-.692A13.044,13.044,0,0,1,1.8,506.615a12.021,12.021,0,0,1-1.784-5.537.751.751,0,0,0-.015-.19v-.095a.394.394,0,0,0,0-.189v-.123a.4.4,0,0,0,0-.189" transform="translate(0 -490.059)"/>
            <path id="Path_683" data-name="Path 683" d="M829.015,0a.783.783,0,0,1,.037.241,3.75,3.75,0,0,1-.236,1.476,4.353,4.353,0,0,1-1.162,1.762,3.837,3.837,0,0,1-1.7.919,2.02,2.02,0,0,1-.735.053l-.07-.012a2.014,2.014,0,0,1-.028-.584A4.347,4.347,0,0,1,827.081.683a4.44,4.44,0,0,1,1.364-.6,2.954,2.954,0,0,1,.442-.073c.009,0,.019,0,.024-.009Z" transform="translate(-817.308)"/>
            <path id="Path_684" data-name="Path 684" d="M0,1082.472a.4.4,0,0,1,0,.189Z" transform="translate(0 -1072.238)" fill="#343434"/>
            <path id="Path_685" data-name="Path 685" d="M0,1115.456a.4.4,0,0,1,0,.189Z" transform="translate(0 -1104.91)" fill="#343434"/>
          </g>
        </g>
      </g>
    </g>
    <g id="Group_3762" data-name="Group 3762" transform="translate(17.523 313.423)">
      <g id="Rectangle_3312" data-name="Rectangle 3312" transform="translate(0.477 9.054)" fill="#fff" stroke="#4971d1" stroke-width="2">
        <rect width="339" height="48" rx="6" stroke="none"/>
        <rect x="1" y="1" width="337" height="46" rx="5" fill="none"/>
      </g>
      <text id="Username" transform="translate(17.477 38.054)" fill="#1c2340" font-size="14" font-family="SegoeUI, Segoe UI"><tspan x="0" y="0">Johnchristianjc@gmail.com </tspan></text>
      <g id="Group_3764" data-name="Group 3764" transform="translate(8.762 0)">
        <g id="Group_3776" data-name="Group 3776" transform="translate(-22.866)">
          <rect id="Rectangle_3317" data-name="Rectangle 3317" width="43" height="17" transform="translate(22.581 0.054)" fill="#fff"/>
          <text id="Username-2" data-name="Username" transform="translate(27.581 13.054)" fill="#4971d1" font-size="12" font-family="SegoeUI, Segoe UI"><tspan x="0" y="0">Email</tspan></text>
        </g>
      </g>
    </g>
    <g id="Group_3763" data-name="Group 3763" transform="translate(17.523 396.659)">
      <g id="Rectangle_3312-2" data-name="Rectangle 3312" transform="translate(0.477 -0.182)" fill="#fff" stroke="#a6b4d6" stroke-width="1.5" opacity="0.5">
        <rect width="339" height="48" rx="6" stroke="none"/>
        <rect x="0.75" y="0.75" width="337.5" height="46.5" rx="5.25" fill="none"/>
      </g>
      <text id="Username-3" data-name="Username" transform="translate(17.477 28.818)" fill="#8b9094" font-size="14" font-family="SegoeUI, Segoe UI"><tspan x="0" y="0">Password</tspan></text>
    </g>
    <g id="Group_3766" data-name="Group 3766" transform="translate(19.276 208.732)">
      <g id="Group_3765" data-name="Group 3765" clip-path="url(#clip-path-3)">
        <path id="Path_686" data-name="Path 686" d="M44.843,88.608h0A28.172,28.172,0,0,1,16.671,60.436V33.667A28.172,28.172,0,0,1,44.843,61.839Z" transform="translate(-8.692 -17.554)" fill="#4971d1"/>
        <path id="Path_687" data-name="Path 687" d="M80.69,65.831h0V51.614A17.947,17.947,0,0,1,98.637,33.667V47.884A17.947,17.947,0,0,1,80.69,65.831" transform="translate(-42.071 -17.554)" fill="#0cbdec"/>
        <path id="Path_688" data-name="Path 688" d="M121.26,126.685H100.679A19.988,19.988,0,0,1,80.691,106.7h20.581A19.988,19.988,0,0,1,121.26,126.685Z" transform="translate(-42.072 -55.631)" fill="#0cbdec"/>
      </g>
    </g>
    <g id="Group_3780" data-name="Group 3780" transform="translate(17.523 462.371)">
      <text id="Forgot_password_" data-name="Forgot password?" transform="translate(337.477 15.105)" fill="#303540" font-size="12" font-family="SegoeUI, Segoe UI"><tspan x="-94.178" y="0">Forgot password?</tspan></text>
      <text id="Name-2" data-name="Name" transform="translate(29.477 15.105)" fill="#303540" font-size="12" font-family="SegoeUI, Segoe UI"><tspan x="0" y="0">Remember Me</tspan></text>
      <g id="vuesax_linear_tick-square" data-name="vuesax/linear/tick-square">
        <g id="tick-square" transform="translate(0 0)">
          <path id="Vector" d="M6.133,17.523H11.39c4.381,0,6.133-1.752,6.133-6.133V6.133C17.523,1.752,15.771,0,11.39,0H6.133C1.752,0,0,1.752,0,6.133V11.39C0,15.771,1.752,17.523,6.133,17.523Z" transform="translate(1.752 1.752)" fill="none" stroke="#4971d1" stroke-linecap="round" stroke-linejoin="round" stroke-width="1.5"/>
          <path id="Vector-2" data-name="Vector" d="M0,0H21.028V21.028H0Z" fill="none" opacity="0"/>
        </g>
      </g>
    </g>
  </g>
</svg>
